<svg width="278" height="289" viewBox="0 0 278 289" fill="none" xmlns="http://www.w3.org/2000/svg">
<path d="M94.8663 182.308C114.035 203.991 156.853 228.234 188.535 239.654C212.263 197.499 214.008 118.142 215.885 100.745C217.762 83.3478 205.292 49.8919 177.275 55.3787C154.86 59.7681 144.788 93.6076 142.554 109.979C124.501 102.529 84.1863 90.2531 67.3489 100.745C46.3022 113.86 70.7168 154.991 94.8663 182.308Z" fill="#7F0B0C"/>
<path d="M12.0871 100.106C5.26418 96.3547 4.00011 100.425 3.27829 101.249C2.55647 102.073 2.20298 106.337 4.71505 108.855C7.85513 112.002 23.9491 114.51 33.711 120.677C43.4729 126.844 49.6465 119.029 46.5373 113.923C43.4282 108.816 20.6157 104.796 12.0871 100.106Z" fill="#0B0A08"/>
<path d="M16.3294 148.444C8.59882 147.514 8.94718 151.761 8.58557 152.796C8.22395 153.83 9.48902 157.916 12.76 159.313C16.8487 161.06 32.7138 157.372 44.073 159.445C55.4321 161.518 58.2388 151.963 53.4468 148.388C48.6549 144.813 25.9925 149.608 16.3294 148.444Z" fill="#0B0A08"/>
<path d="M29.5839 185.886C21.8239 186.526 23.018 190.618 22.8713 191.703C22.7247 192.789 24.7844 196.539 28.2692 197.25C32.6253 198.14 47.4271 191.343 58.9711 191.093C70.5151 190.843 71.3464 180.919 65.9344 178.379C60.5223 175.839 39.2839 185.086 29.5839 185.886Z" fill="#0B0A08"/>
<path d="M61.884 225.57C55.0856 229.366 57.8667 232.595 58.1828 233.644C58.4988 234.693 61.9263 237.253 65.3931 236.458C69.7266 235.465 80.3852 223.148 90.7896 218.141C101.194 213.134 97.8415 203.756 91.8635 203.685C85.8854 203.614 70.382 220.825 61.884 225.57Z" fill="#0B0A08"/>
<path d="M97.9688 250.086C92.0644 255.162 95.4339 257.772 95.9529 258.737C96.4719 259.701 100.341 261.526 103.58 260.056C107.628 258.217 115.615 244.022 124.811 237.04C134.008 230.057 128.852 221.537 122.979 222.66C117.107 223.783 105.349 243.741 97.9688 250.086Z" fill="#0B0A08"/>
<path d="M143.098 274.093C138.762 280.561 142.706 282.177 143.464 282.968C144.221 283.76 148.437 284.486 151.166 282.204C154.577 279.352 158.486 263.54 165.485 254.357C172.485 245.174 165.242 238.339 159.883 240.988C154.523 243.637 148.518 266.009 143.098 274.093Z" fill="#0B0A08"/>
<path d="M200.161 281.901C201.107 289.63 205.148 288.275 206.238 288.379C207.329 288.482 210.994 286.276 211.568 282.766C212.285 278.378 204.909 263.856 204.203 252.331C203.498 240.806 193.549 240.367 191.224 245.875C188.9 251.384 198.978 272.24 200.161 281.901Z" fill="#0B0A08"/>
<path d="M243.738 249.985C248.602 256.065 251.33 252.79 252.312 252.306C253.295 251.821 255.255 248.019 253.9 244.73C252.206 240.62 238.302 232.136 231.649 222.698C224.996 213.261 216.299 218.113 217.214 224.021C218.128 229.929 237.658 242.385 243.738 249.985Z" fill="#0B0A08"/>
<path d="M259.735 205.119C266.688 208.623 267.805 204.51 268.497 203.66C269.188 202.81 269.388 198.537 266.787 196.111C263.536 193.079 247.362 191.153 237.384 185.341C227.407 179.53 221.518 187.561 224.809 192.553C228.1 197.544 251.043 200.74 259.735 205.119Z" fill="#0B0A08"/>
<path d="M265.881 164.559C273.107 167.46 273.871 163.267 274.488 162.361C275.105 161.456 274.941 157.181 272.144 154.985C268.647 152.239 252.368 151.692 241.934 146.747C231.499 141.803 226.313 150.305 230.016 154.999C233.718 159.693 256.849 160.932 265.881 164.559Z" fill="#0B0A08"/>
<path d="M267.854 115.441C275.602 116.217 275.169 111.977 275.51 110.936C275.85 109.894 274.504 105.834 271.206 104.503C267.083 102.839 251.295 106.843 239.896 104.998C228.498 103.152 225.883 112.762 230.746 116.24C235.608 119.718 258.17 114.471 267.854 115.441Z" fill="#0B0A08"/>
<path d="M268.275 73.2028C276.011 72.3185 274.689 68.2666 274.801 67.1769C274.914 66.0871 272.737 62.4044 269.231 61.8026C264.849 61.0503 250.269 68.3108 238.739 68.9239C227.208 69.5371 226.69 79.4824 232.179 81.8507C237.669 84.219 258.605 74.3082 268.275 73.2028Z" fill="#0B0A08"/>
<path d="M252.495 35.8045C259.765 33.0148 257.471 29.422 257.308 28.3388C257.144 27.2555 254.116 24.2337 250.572 24.5272C246.141 24.894 233.838 35.5681 222.826 39.0437C211.815 42.5193 213.799 52.2785 219.706 53.1997C225.613 54.1208 243.408 39.2917 252.495 35.8045Z" fill="#0B0A08"/>
<path d="M49.9484 52.6209C46.2411 45.7738 42.9753 48.5126 41.9224 48.815C40.8694 49.1174 38.265 52.5113 39.0149 55.9881C39.9522 60.3342 52.1292 71.152 57.0009 81.6206C61.8726 92.0893 71.293 88.8588 71.4417 82.8822C71.5904 76.9056 54.5825 61.1798 49.9484 52.6209Z" fill="#0B0A08"/>
<path d="M91.3147 42.1398C90.4001 34.4074 86.3534 35.7456 85.2632 35.6375C84.173 35.5294 80.4989 37.7206 79.9108 41.2284C79.1757 45.6132 86.4933 60.1651 87.1516 71.693C87.8099 83.2209 97.7573 83.7003 100.104 78.2017C102.451 72.7031 92.458 51.8054 91.3147 42.1398Z" fill="#0B0A08"/>
<path d="M132.374 42.5894C132.556 34.8051 128.361 35.5611 127.297 35.3009C126.233 35.0406 122.287 36.6935 121.212 40.0838C119.867 44.3218 125.067 59.7578 124.098 71.2638C123.129 82.7698 132.91 84.6428 136.007 79.5287C139.103 74.4146 132.147 52.3197 132.374 42.5894Z" fill="#0B0A08"/>
<path d="M162.4 16.6029C163.574 8.90564 159.317 9.11964 158.295 8.72554C157.273 8.33143 153.149 9.46677 151.649 12.692C149.774 16.7234 152.959 32.6972 150.528 43.9852C148.098 55.2731 157.559 58.3803 161.284 53.7037C165.008 49.027 160.932 26.2245 162.4 16.6029Z" fill="#0B0A08"/>
<path d="M212.633 12.4599C216.993 6.00885 213.056 4.37767 212.301 3.58347C211.546 2.78928 207.333 2.04721 204.596 4.31836C201.174 7.1573 197.205 22.9544 190.171 32.1111C183.137 41.2678 190.353 48.1305 195.723 45.5016C201.092 42.8726 207.183 20.5237 212.633 12.4599Z" fill="#0B0A08"/>
</svg>
