<svg width="194" height="174" viewBox="0 0 194 174" fill="none" xmlns="http://www.w3.org/2000/svg">
<path d="M30.2124 86.6235C39.7657 103.035 64.2085 124.127 83.13 135.538C103.804 111.454 115.104 60.6097 118.543 49.655C121.982 38.7003 118.249 15.5717 99.5172 15.5097C84.5317 15.46 73.7109 35.9448 70.1737 46.1934C59.5128 39.0845 35.1461 26.0147 22.9664 30.6072C7.74174 36.3479 18.1765 65.9474 30.2124 86.6235Z" fill="#7F0B0C"/>
<path d="M123.555 134.541C130.673 146.768 148.884 162.483 162.982 170.986C178.386 153.041 186.805 115.159 189.368 106.997C191.93 98.8345 189.148 81.602 175.192 81.5558C164.027 81.5188 155.964 96.7815 153.329 104.417C145.386 99.1208 127.231 89.3828 118.156 92.8046C106.812 97.0818 114.587 119.136 123.555 134.541Z" fill="#7F0B0C"/>
</svg>
